<svg width="512" height="480" xmlns="http://www.w3.org/2000/svg">
 <g>
  <title>Layer 1</title>
  <g id="svg_1">
   <!--! Font Awesome Free 7.1.0 by @fontawesome - https://fontawesome.com License - https://fontawesome.com/license/free (Icons: CC BY 4.0, Fonts: SIL OFL 1.1, Code: MIT License) Copyright 2025 Fonticons, Inc. -->
   <path id="svg_2" fill="#F3C07B" d="m321.5,68.8c7.6,-12.9 21.4,-20.8 36.3,-20.8l2.2,0c22.1,0 40,17.9 40,40s-17.9,40 -40,40l-73.3,0l34.8,-59.2zm-131,0l34.8,59.2l-73.3,0c-22.1,0 -40,-17.9 -40,-40s17.9,-40 40,-40l2.2,0c14.9,0 28.8,7.9 36.3,20.8zm89.6,-24.3l-24.1,41l-24.1,-41c-16.2,-27.6 -45.8,-44.5 -77.7,-44.5l-2.2,0c-48.6,0 -88,39.4 -88,88c0,14.4 3.5,28 9.6,40l-41.6,0c-17.7,0 -32,14.3 -32,32l0,32c0,17.7 14.3,32 32,32l448,0c17.7,0 32,-14.3 32,-32l0,-32c0,-17.7 -14.3,-32 -32,-32l-41.6,0c6.1,-12 9.6,-25.6 9.6,-40c0,-48.6 -39.4,-88 -88,-88l-2.2,0c-31.9,0 -61.5,16.9 -77.7,44.4l0,0.1zm199.9,227.5l-200,0l0,208l136,0c35.3,0 64,-28.7 64,-64l0,-144zm-248,0l-200,0l0,144c0,35.3 28.7,64 64,64l136,0l0,-208z"/>
  </g>
 </g>

</svg>